<svg width="36" height="45" viewBox="0 0 36 45" fill="none" xmlns="http://www.w3.org/2000/svg">
<path d="M20.4534 1.61084L17.9234 5.38006L15.2432 1.61084" stroke="#002642" stroke-width="2" stroke-linecap="round" stroke-linejoin="round"/>
<path d="M15.2432 43.4028L17.7731 39.6336L20.4534 43.4028" stroke="#002642" stroke-width="2" stroke-linecap="round" stroke-linejoin="round"/>
<path d="M27.7106 19.7564L27.7105 19.7516C27.6895 15.4056 24.0294 11.9431 19.5877 11.9431C15.1458 11.9431 11.4649 15.4245 11.4649 19.7882V19.9821H7.90964C4.42682 19.9821 1.52612 22.7137 1.52612 26.1558C1.52612 29.5978 4.42682 32.3294 7.90964 32.3294H27.7873C31.279 32.3294 34.1708 29.5192 34.1708 26.1558C34.1708 22.7944 31.3471 20.066 27.9451 19.9856L27.7106 19.9801L27.7106 19.7564Z" stroke="#002642" stroke-width="2"/>
</svg>
