<svg width="23" height="23" viewBox="0 0 23 23" fill="none" xmlns="http://www.w3.org/2000/svg">
<path d="M10.3453 17.1509H11.4103V16.1159H10.3453V17.1509ZM10.4503 15.0059H11.2903V14.0759C11.2903 12.9809 11.8453 12.5609 12.6103 11.9759C13.8703 11.0309 14.5903 10.0259 14.5903 8.69095C14.5903 6.62095 13.1053 5.72095 11.3503 5.72095C10.2703 5.72095 9.26535 6.18595 8.60535 6.63595L8.96535 7.37095C9.55035 6.95095 10.3003 6.56095 11.2603 6.56095C12.6403 6.56095 13.5853 7.14595 13.5853 8.70595C13.5853 9.86095 13.1203 10.5659 12.2653 11.1959C11.0653 12.0809 10.4503 12.5459 10.4503 14.0459V15.0059Z" fill="#002642"/>
<circle cx="11.4596" cy="11.5688" r="10.35" stroke="#002642" stroke-width="0.8"/>
</svg>
