<svg width="36" height="24" viewBox="0 0 36 24" fill="none" xmlns="http://www.w3.org/2000/svg">
<path d="M27.8985 9.21144L27.8985 9.20659C27.877 4.78091 24.1496 1.25366 19.6246 1.25366C15.0994 1.25366 11.3508 4.80015 11.3508 9.24395V9.46318H7.69886C4.15309 9.46318 1.20117 12.244 1.20117 15.7465C1.20117 19.2491 4.15309 22.0299 7.69886 22.0299H27.998C31.5527 22.0299 34.4957 19.169 34.4957 15.7465C34.4957 12.3262 31.6222 9.54859 28.1587 9.46672L27.8985 9.46056L27.8985 9.21144Z" stroke="#002642" stroke-width="2"/>
<line x1="2.90828" y1="12.7099" x2="12.3338" y2="22.1354" stroke="#002642" stroke-width="2"/>
<line x1="10.7191" y1="9.65398" x2="23.2356" y2="22.1705" stroke="#002642" stroke-width="2"/>
<line x1="14.2561" y1="2.6967" x2="32.2852" y2="20.7259" stroke="#002642" stroke-width="2"/>
</svg>
