<svg width="38" height="38" viewBox="0 0 38 38" fill="none" xmlns="http://www.w3.org/2000/svg">
<rect x="1.83801" y="6.25903" width="30.7077" height="30.7077" rx="1" fill="#002642" stroke="#002642" stroke-width="2" stroke-linejoin="round"/>
<path d="M24.033 18.8663C23.902 18.9973 23.8365 19.0628 23.7662 19.1213C23.6131 19.2487 23.4419 19.3525 23.2581 19.4293C23.1737 19.4645 23.0853 19.4923 22.9086 19.5478L20.4866 20.3088V20.3088C19.1942 20.6842 17.9906 19.4845 18.3717 18.1938V18.1938L19.1225 15.7676C19.1778 15.5891 19.2054 15.4998 19.2407 15.4145C19.3175 15.2289 19.4219 15.0558 19.5503 14.9012C19.6093 14.8303 19.6754 14.7642 19.8075 14.632L31.3337 3.10584C31.8337 2.60582 32.0837 2.35582 32.3495 2.21512C32.9349 1.90516 33.6358 1.90516 34.2212 2.21512C34.4869 2.35582 34.7369 2.60582 35.237 3.10584L35.5636 3.43247C36.0636 3.93248 36.3136 4.18249 36.4543 4.44823C36.7643 5.03364 36.7643 5.73454 36.4543 6.31995C36.3136 6.58568 36.0636 6.83569 35.5636 7.3357L24.033 18.8663Z" fill="#002642" stroke="white" stroke-width="2"/>
</svg>
