<svg width="38" height="38" viewBox="0 0 38 38" fill="none" xmlns="http://www.w3.org/2000/svg">
<path d="M32.019 10.0824V35.7179C32.019 36.2702 31.5712 36.7179 31.019 36.7179H2.31091C1.75863 36.7179 1.31091 36.2702 1.31091 35.7179V7.00989C1.31091 6.4576 1.75863 6.00989 2.31091 6.00989H27.7418" stroke="#002642" stroke-width="2" stroke-linejoin="round"/>
<path d="M23.506 18.6176C23.3751 18.7486 23.3096 18.8141 23.2393 18.8726C23.0862 19 22.9149 19.1038 22.7311 19.1806C22.6468 19.2158 22.5584 19.2436 22.3817 19.2991L19.9596 20.0601V20.0601C18.6673 20.4355 17.4636 19.2358 17.8447 17.9451V17.9451L18.5956 15.5189C18.6508 15.3403 18.6785 15.2511 18.7137 15.1658C18.7906 14.9801 18.8949 14.8071 19.0234 14.6525C19.0823 14.5815 19.1484 14.5154 19.2806 14.3833L30.8069 2.85696C31.3069 2.35695 31.5569 2.10694 31.8226 1.96624C32.408 1.65628 33.1089 1.65628 33.6944 1.96624C33.9601 2.10694 34.2101 2.35695 34.7101 2.85696L35.0368 3.18364C35.5368 3.68365 35.7868 3.93366 35.9275 4.19939C36.2375 4.7848 36.2375 5.4857 35.9275 6.07111C35.7868 6.33685 35.5368 6.58686 35.0368 7.08687L23.506 18.6176Z" stroke="#002642" stroke-width="2"/>
</svg>
