<svg width="30" height="39" viewBox="0 0 30 39" fill="none" xmlns="http://www.w3.org/2000/svg">
<line x1="12.8711" y1="23.3892" x2="12.8711" y2="37.8921" stroke="#002642" stroke-width="2" stroke-linecap="round"/>
<line x1="19.0898" y1="26.0559" x2="19.0898" y2="32.8441" stroke="#002642" stroke-width="2" stroke-linecap="round"/>
<line x1="25.3088" y1="23.3892" x2="25.3088" y2="29.6406" stroke="#002642" stroke-width="2" stroke-linecap="round"/>
<line x1="6.65234" y1="23.3892" x2="6.65234" y2="30.7943" stroke="#002642" stroke-width="2" stroke-linecap="round"/>
<path d="M23.4133 7.83585L23.4132 7.83101C23.3951 4.09158 20.2475 1.12158 16.4394 1.12158C12.631 1.12158 9.46552 4.10762 9.46552 7.86256V7.86389H6.64502C3.64101 7.86389 1.12988 10.2211 1.12988 13.203C1.12988 16.1849 3.64101 18.5421 6.64502 18.5421H23.3163C26.3292 18.5421 28.8314 16.1175 28.8314 13.203C28.8314 10.2905 26.3875 7.93622 23.4525 7.86684L23.4133 7.86591L23.4133 7.83585Z" stroke="#002642" stroke-width="2"/>
</svg>
