<svg width="25" height="25" viewBox="0 0 25 25" fill="none" xmlns="http://www.w3.org/2000/svg">
<circle cx="12.4321" cy="12.495" r="3.97718" stroke="#002642" stroke-width="2"/>
<path d="M23.6196 12.4951C23.6196 10.8716 22.3037 9.5572 20.6817 9.5572H19.5263L20.3426 8.74094C21.4905 7.59308 21.4905 5.7325 20.3426 4.58464C19.1947 3.43678 17.3342 3.43678 16.1863 4.58464L15.37 5.4009V4.24554C15.37 2.62203 14.0541 1.30762 12.4321 1.30762C10.8086 1.30762 9.49421 2.62353 9.49421 4.24554V5.4009L8.67795 4.58464C7.5301 3.43678 5.66951 3.43678 4.52165 4.58464C3.3738 5.7325 3.3738 7.59308 4.52165 8.74094L5.33791 9.5572H4.18255C2.55904 9.5572 1.24463 10.8731 1.24463 12.4951C1.24463 14.1171 2.56054 15.433 4.18255 15.433H5.33791L4.52165 16.2493C3.3738 17.3972 3.3738 19.2577 4.52165 20.4056C5.66951 21.5535 7.5301 21.5535 8.67795 20.4056L9.49421 19.5893V20.7447C9.49421 22.3682 10.8101 23.6826 12.4321 23.6826C14.0556 23.6826 15.37 22.3667 15.37 20.7447V19.5893L16.1863 20.4056C17.3342 21.5535 19.1947 21.5535 20.3426 20.4056C21.4905 19.2577 21.4905 17.3972 20.3426 16.2493L19.5263 15.433H20.6817C22.3052 15.433 23.6196 14.1171 23.6196 12.4951V12.4951Z" stroke="#002642" stroke-width="2" stroke-miterlimit="10" stroke-linejoin="round"/>
</svg>
