<svg width="29" height="28" viewBox="0 0 29 28" fill="none" xmlns="http://www.w3.org/2000/svg">
<path d="M22.5281 0.0432129H17.7773C18.7729 0.392534 19.4955 1.4405 19.4955 2.6795V9.57859C19.4955 11.1025 18.4017 12.3382 17.0514 12.3382C15.701 12.3382 14.6072 11.1025 14.6072 9.57859V2.6795C14.6072 1.4405 15.3299 0.392534 16.3254 0.0432129H6.47021C3.35907 0.0432129 0.837402 2.56269 0.837402 5.67165V21.7153C0.837402 24.8232 3.35907 27.3438 6.47021 27.3438H12.8617C11.8661 26.9944 11.1435 25.9465 11.1435 24.7075V17.8084C11.1435 16.2845 12.2373 15.0487 13.5876 15.0487C14.938 15.0487 16.0318 16.2845 16.0318 17.8084V24.7075C16.0318 25.9465 15.3091 26.9944 14.3136 27.3438H22.5292C25.6403 27.3438 28.162 24.8243 28.162 21.7153V5.67165C28.162 2.56378 25.6403 0.0432129 22.5292 0.0432129H22.5281ZM13.116 13.8447C11.9982 14.6012 10.4001 14.1918 9.54533 12.9299L5.67769 7.2174C4.82294 5.95548 5.0369 4.31912 6.15473 3.56263C7.27256 2.80613 8.8707 3.21549 9.72545 4.47741L13.5931 10.1899C14.4478 11.4518 14.2339 13.0882 13.116 13.8447ZM24.4712 23.9925C23.3785 24.785 21.7672 24.4269 20.8732 23.1923L16.8243 17.6064C15.9303 16.3729 16.0907 14.73 17.1835 13.9386C18.2762 13.146 19.8874 13.5041 20.7815 14.7387L24.8303 20.3235C25.7244 21.557 25.5639 23.1999 24.4712 23.9925Z" fill="#002642"/>
</svg>
