<svg width="131" height="28" viewBox="0 0 131 28" fill="none" xmlns="http://www.w3.org/2000/svg">
<path d="M29.4441 6.78898H41.3732V8.60849H36.3951V21.0896H34.3404V8.60849H29.4441V6.78898Z" fill="#002642"/>
<path d="M43.3154 6.80942H51.4112V8.62894H45.3598V12.9835H51.2067V14.8132H45.3598V19.2496H51.6054V21.0691H43.3154V6.80942Z" fill="#002642"/>
<path d="M53.7827 6.80942H55.8271V19.2292H62.2567V21.0896H53.7827V6.80942Z" fill="#002642"/>
<path d="M71.0579 6.60498C73.2658 6.60498 75.1024 7.30348 76.5675 8.70049C78.0395 10.0975 78.7755 11.8489 78.7755 13.9546C78.7755 16.0603 78.0327 17.8049 76.5471 19.1883C75.0683 20.5648 73.2011 21.2531 70.9454 21.2531C68.792 21.2531 66.9963 20.5648 65.5584 19.1883C64.1273 17.8049 63.4118 16.074 63.4118 13.9955C63.4118 11.8625 64.1342 10.0975 65.5789 8.70049C67.0236 7.30348 68.8499 6.60498 71.0579 6.60498ZM71.1396 8.54716C69.5041 8.54716 68.1582 9.05826 67.102 10.0805C66.0525 11.1027 65.5278 12.4077 65.5278 13.9955C65.5278 15.5356 66.0559 16.8168 67.1122 17.839C68.1684 18.8612 69.4905 19.3723 71.0783 19.3723C72.6729 19.3723 74.0018 18.8509 75.0649 17.8083C76.1348 16.7657 76.6697 15.4675 76.6697 13.9137C76.6697 12.4009 76.1348 11.1299 75.0649 10.1009C74.0018 9.06508 72.6934 8.54716 71.1396 8.54716Z" fill="#002642"/>
<path d="M81.3003 6.80942H88.9157V8.62894H83.3447V12.6155H88.9157V14.435H83.3447V21.0896H81.3003V6.80942Z" fill="#002642"/>
<path d="M95.6725 6.72764H97.1138L103.503 21.0896H101.407L99.5057 16.8576H93.4338L91.6348 21.0896H89.5392L95.6725 6.72764ZM98.6675 15.0381L96.3675 9.8658L94.2311 15.0381H98.6675Z" fill="#002642"/>
<path d="M105.138 21.0896V6.80942H108.716C110.16 6.80942 111.305 7.16719 112.15 7.88273C113.002 8.59827 113.428 9.56595 113.428 10.7858C113.428 11.6172 113.22 12.3361 112.805 12.9426C112.389 13.5491 111.793 14.0023 111.016 14.3021C111.472 14.602 111.919 15.0109 112.355 15.5288C112.791 16.0467 113.404 16.9496 114.195 18.2376C114.692 19.0486 115.091 19.6585 115.391 20.0674L116.147 21.0896H113.714L113.091 20.1491C113.07 20.1151 113.029 20.0571 112.968 19.9754L112.569 19.4132L111.936 18.3705L111.251 17.2563C110.828 16.6702 110.44 16.2034 110.085 15.8559C109.738 15.5083 109.421 15.2596 109.135 15.1097C108.855 14.9529 108.382 14.8746 107.714 14.8746H107.182V21.0896H105.138ZM107.796 8.54716H107.182V13.0551H107.959C108.995 13.0551 109.704 12.9665 110.085 12.7893C110.474 12.6121 110.774 12.3463 110.985 11.992C111.203 11.6308 111.312 11.2219 111.312 10.7653C111.312 10.3156 111.193 9.91009 110.954 9.54892C110.716 9.18093 110.379 8.92197 109.942 8.77205C109.513 8.62212 108.798 8.54716 107.796 8.54716Z" fill="#002642"/>
<path d="M129.098 6.80942H131V21.0896H128.945V9.97824L124.55 15.4981H124.171L119.735 9.97824V21.0896H117.691V6.80942H119.612L124.366 12.6769L129.098 6.80942Z" fill="#002642"/>
<path d="M21.6902 0.0432129H16.9394C17.935 0.392534 18.6576 1.4405 18.6576 2.6795V9.57859C18.6576 11.1025 17.5638 12.3382 16.2135 12.3382C14.8631 12.3382 13.7693 11.1025 13.7693 9.57859V2.6795C13.7693 1.4405 14.492 0.392534 15.4875 0.0432129H5.63232C2.52117 0.0432129 -0.000488281 2.56269 -0.000488281 5.67165V21.7153C-0.000488281 24.8232 2.52117 27.3438 5.63232 27.3438H12.0238C11.0282 26.9944 10.3056 25.9465 10.3056 24.7075V17.8084C10.3056 16.2845 11.3994 15.0487 12.7497 15.0487C14.1001 15.0487 15.1939 16.2845 15.1939 17.8084V24.7075C15.1939 25.9465 14.4712 26.9944 13.4757 27.3438H21.6913C24.8024 27.3438 27.3241 24.8243 27.3241 21.7153V5.67165C27.3241 2.56378 24.8024 0.0432129 21.6913 0.0432129H21.6902ZM12.2782 13.8447C11.1603 14.6012 9.56218 14.1918 8.70744 12.9299L4.83979 7.2174C3.98505 5.95548 4.19901 4.31912 5.31684 3.56263C6.43466 2.80613 8.03281 3.21549 8.88756 4.47741L12.7552 10.1899C13.6099 11.4518 13.396 13.0882 12.2782 13.8447ZM23.6333 23.9925C22.5406 24.785 20.9293 24.4269 20.0353 23.1923L15.9864 17.6064C15.0924 16.3729 15.2528 14.73 16.3456 13.9386C17.4383 13.146 19.0495 13.5041 19.9436 14.7387L23.9924 20.3235C24.8865 21.557 24.726 23.1999 23.6333 23.9925Z" fill="#002642"/>
</svg>
